<svg width="294" height="54" viewBox="0 0 294 54" fill="none" xmlns="http://www.w3.org/2000/svg">
    <path d="M26.3675 2.01563L26.3941 0.243397C25.9535 0.285231 25.4864 0.794846 25.0154 0.88612C24.59 0.844286 24.1951 0.0532432 23.8077 0C23.4279 0.0418339 23.0025 0.817662 22.5772 0.848086C22.11 0.7416 21.6581 0.220576 21.2175 0.16353L21.1909 1.93577C22.9029 1.53351 24.6876 1.56094 26.3865 2.01563H26.3675Z" fill="#E0AF3C"/>
    <path d="M29.5731 17.4675C28.5149 18.8405 27.6509 20.3532 27.0057 21.9628C26.463 24.15 26.6076 26.4516 27.4197 28.5535H32.7368C32.6632 28.1043 32.431 27.6964 32.0826 27.4039C31.7341 27.1115 31.2924 26.954 30.8378 26.96C29.03 22.8831 29.5731 17.4675 29.5731 17.4675Z" fill="#E0AF3C"/>
    <path d="M6.53076 23.7692L8.16007 28.5535H13.01C12.9378 27.8461 12.558 26.652 11.3161 26.652C11.1072 25.9294 10.3135 24.0126 10.3021 23.9898C10.3591 23.9366 10.792 23.5144 13.405 20.9245C10.3515 19.4451 9.86533 22.9097 6.53076 23.7692Z" fill="#E0AF3C"/>
    <path d="M5.95843 28.5536C5.98122 26.6216 4.54941 26.5721 4.54941 26.5721L4.04808 23.5867C4.04808 23.5867 7.84599 23.3699 10.7514 19.5973L9.61202 18.5552L11.6515 19.4604C13.2352 19.989 17.0825 21.3619 19.2055 22.2937C19.7297 21.3771 19.479 19.2246 18.8599 18C20.6601 19.9015 20.0677 22.6892 20.0677 22.6892C19.7513 24.6656 19.9703 26.6908 20.7019 28.5536H25.8139C25.7417 27.9032 25.4341 27.0627 24.4353 26.8612C24.5416 23.9252 26.2241 21.6395 26.714 20.8751C27.6369 19.4414 28.3357 18.5286 28.7459 17.5398C29.3247 16.6735 29.6574 15.6659 29.7082 14.6249C29.7591 13.5838 29.5262 12.5485 29.0345 11.6298C28.1838 10.1923 26.7976 9.85378 26.038 9.45065C26.7557 9.47253 27.465 9.61126 28.1382 9.86139C28.457 9.84433 28.7765 9.84433 29.0953 9.86139C29.3801 9.86139 30.0524 9.89562 30.379 9.94125C30.5043 9.67504 30.6145 9.40882 30.7132 9.15401L29.194 9.1312L28.913 8.44664L30.9221 8.48087C31.0915 7.9518 31.2185 7.41004 31.3019 6.86075L29.7409 6.34734C29.7793 6.1249 29.8009 5.89988 29.8055 5.67419C29.8055 5.49164 28.7383 4.81469 28.1572 4.62454C28.19 4.36315 28.19 4.09869 28.1572 3.8373C26.9365 3.20033 25.5963 2.82595 24.2226 2.73821C24.0121 2.71279 23.8003 2.69883 23.5883 2.69637C22.278 2.67804 20.9957 3.07762 19.9271 3.8373C20.1761 3.94158 20.4059 4.08684 20.607 4.26705C19.9765 4.20395 19.3465 4.39102 18.8523 4.78807L18.784 4.84892C18.4927 5.1015 18.2672 5.42129 18.1269 5.78068V5.8035C17.9155 6.16472 17.7424 6.54711 17.6104 6.94442C18.0374 6.88341 18.4709 6.88341 18.8979 6.94442C18.7295 7.04588 18.5683 7.15898 18.4156 7.2829L18.2826 7.39319L18.2713 7.36656L18.2143 7.41981C17.8405 7.76531 17.5295 8.17324 17.2952 8.62538C17.0657 9.07814 16.9154 9.56694 16.8508 10.0706C16.8297 10.232 16.8183 10.3945 16.8167 10.5574C16.7926 10.7409 16.8134 10.9275 16.8774 11.1012C18.1421 10.5961 19.5339 10.5042 20.8538 10.8388C20.8538 10.8122 19.0688 12.2611 19.0688 12.2611C23.3794 11.5614 24.6404 12.5311 24.6404 12.5311L24.0669 13.0712L23.1364 13.8318C23.2313 13.8584 26.5545 14.4707 28.1496 17.2546C26.0266 14.9727 21.7387 14.292 21.7387 14.292C21.7387 14.292 22.8022 13.2651 23.1554 12.9609L23.049 12.9419C20.7437 12.2878 17.3256 13.113 17.3256 13.113C17.3256 13.113 18.9283 11.4587 19.1258 11.3066C18.9967 11.3066 18.5751 11.1088 16.7977 11.6108C15.9025 11.833 14.9623 11.7921 14.0898 11.4929C12.7344 11.0644 11.3335 10.7964 9.91585 10.6943C9.53606 10.6562 8.68153 10.6372 7.80042 10.6144C6.85094 10.5916 5.86728 10.565 5.21784 10.5193L4.21899 10.4509L3.97213 10.4242H3.93035H3.88098L3.8392 10.409H3.78983C3.65783 10.3665 3.53056 10.3104 3.41003 10.2417L3.36826 10.2189L3.31509 10.1885L3.17836 10.0896L3.15558 10.0706L3.05303 9.98689C2.94353 9.88473 2.84663 9.76983 2.76439 9.64461C2.6841 9.5253 2.61663 9.39782 2.5631 9.26431L2.52892 9.15021C2.52892 9.15021 2.52892 9.15021 2.52892 9.12739C2.52727 9.1186 2.52727 9.10957 2.52892 9.10077L2.47195 8.8878V8.72046V8.54172V8.33635V8.30973L2.49474 8.20705L2.52512 8.10056C2.53896 8.04315 2.55803 7.98714 2.58209 7.93323V7.88758C2.64806 7.75091 2.731 7.62313 2.82895 7.50728C2.85117 7.47671 2.87664 7.44866 2.90491 7.42361L2.98467 7.33994L3.04923 7.2829C3.08586 7.24923 3.12524 7.21869 3.16697 7.19162C3.29167 7.10171 3.42849 7.03 3.57334 6.97865L3.68728 6.94062H3.75185H3.80122H3.85819H3.91516H4.02909H4.2076H4.28735L7.60672 6.99386C10.0374 7.02809 11.3553 7.0471 11.5224 7.0433H11.6667H11.8414L12.0579 7.00907L12.2554 6.95963C12.5039 6.88227 12.7331 6.7526 12.9276 6.57932C13.1098 6.41111 13.2554 6.20712 13.3554 5.98008C13.4553 5.75303 13.5075 5.50779 13.5087 5.25966V5.08471C13.5102 5.07335 13.5102 5.06184 13.5087 5.05049V4.92878C13.5087 4.92878 13.5087 4.92879 13.5087 4.89456V4.79187C13.502 4.74429 13.4918 4.69727 13.4783 4.65116V4.61693C13.4659 4.56915 13.4507 4.52216 13.4327 4.47622V4.4534C13.3501 4.25043 13.2303 4.0647 13.0795 3.90575C12.7984 3.61684 12.4245 3.4364 12.0237 3.39614H11.9287H11.8148C11.795 3.11278 11.6704 2.847 11.4653 2.65076C11.2602 2.45453 10.9894 2.34197 10.7058 2.33508C10.1287 2.36226 9.55538 2.44246 8.99296 2.57467C9.18081 2.67498 9.3524 2.80321 9.50188 2.95498C9.50188 2.95498 8.18401 2.53284 7.32948 2.73821C7.12756 2.76441 6.94162 2.86194 6.80515 3.01324C6.66868 3.16455 6.59064 3.35967 6.58509 3.56348C6.58269 3.70625 6.61839 3.84708 6.68849 3.97143C6.75859 4.09577 6.86056 4.19914 6.98387 4.27085C6.9396 4.18815 6.92742 4.09198 6.94969 4.00083C6.99146 3.81448 7.12059 3.62053 7.58014 3.68518L7.85359 3.75363L9.68418 4.42297C9.99801 4.53335 10.3248 4.60239 10.6564 4.62834C10.8506 4.63084 11.0423 4.58358 11.2131 4.49105C11.3839 4.39853 11.5283 4.26383 11.6325 4.09971H11.7351H11.7616H11.8262C11.8439 4.09756 11.8617 4.09756 11.8794 4.09971C12.0951 4.15069 12.2867 4.27418 12.4225 4.4496C12.4883 4.54073 12.5384 4.64229 12.5706 4.75004C12.617 4.91562 12.6137 5.09124 12.561 5.25493C12.5083 5.41863 12.4086 5.56313 12.2744 5.67038C12.1904 5.74431 12.088 5.79424 11.9781 5.8149C11.7517 5.8283 11.5247 5.8283 11.2983 5.8149C10.4703 5.8149 9.01955 5.83772 6.89272 5.71603C6.58509 5.60954 6.53571 5.28247 6.66484 4.95541C6.04005 4.95325 5.43034 5.14745 4.9216 5.51066H4.86463C4.87536 5.30927 4.92434 5.11179 5.00896 4.92878C4.02786 4.99218 3.10384 5.41288 2.41119 6.11154C2.33523 6.16859 2.26686 6.23324 2.1985 6.29409L2.11875 6.36635L1.96303 6.53369L1.91746 6.58693L1.85669 6.6668C1.70166 6.87933 1.57405 7.11061 1.4769 7.35515V7.38177C1.43278 7.49464 1.39599 7.61024 1.36676 7.72786L1.32878 7.87238V7.92562C1.32878 7.99407 1.30599 8.06633 1.2984 8.13098V8.18423V8.21846V8.47326V8.71666C1.29651 8.73944 1.29651 8.76233 1.2984 8.78511L1.34397 9.06654L1.41613 9.33656C1.41451 9.35681 1.41451 9.37716 1.41613 9.39741L1.49209 9.59897C1.5914 9.82353 1.71904 10.0344 1.87188 10.2265C2.1566 10.6002 2.52994 10.897 2.95808 11.0898C3.44886 11.247 3.96203 11.3228 4.47725 11.3142L5.2976 11.356L5.89767 11.3826C5.40712 11.6308 4.95232 11.9442 4.54561 12.3144L4.40129 12.4437C1.58324 15.1819 3.93794 17.1785 1.99341 20.221C0.440069 21.4418 -0.000488281 21.7422 -0.000488281 21.7422L0.026097 22.3507L0.523624 28.5269L5.95843 28.5536ZM28.8256 5.6818V6.53369C28.8256 6.53369 27.6369 6.13056 27.147 5.99745C27.147 5.91378 27.147 5.57151 27.147 5.57151L28.8256 5.6818ZM25.8671 4.97062C25.8563 4.90735 25.8327 4.84694 25.7978 4.79311C25.7629 4.73927 25.7174 4.69314 25.6641 4.65754C25.6107 4.62193 25.5507 4.59761 25.4877 4.58605C25.4246 4.57449 25.3599 4.57594 25.2974 4.59031C24.5378 4.67778 24.8416 5.6856 24.9176 5.79969L24.948 5.84913C24.904 5.82612 24.8621 5.79941 24.8227 5.76927C24.6802 5.66692 24.5632 5.53303 24.4809 5.37802C24.3985 5.223 24.353 5.05105 24.3479 4.87554C24.3452 4.74683 24.3689 4.61892 24.4174 4.4997C24.4659 4.38048 24.5383 4.27248 24.6301 4.18234C24.7219 4.0922 24.8312 4.02183 24.9512 3.97558C25.0711 3.92932 25.1993 3.90814 25.3278 3.91336C25.4602 3.90658 25.5924 3.9309 25.7138 3.98438C25.8352 4.03785 25.9424 4.119 26.0269 4.22135C26.1114 4.32369 26.1708 4.4444 26.2004 4.57383C26.23 4.70326 26.229 4.83784 26.1975 4.96682C26.0875 4.97404 25.9772 4.97531 25.8671 4.97062Z" fill="#E0AF3C"/>
    <path d="M22.5768 29.7021C22.5768 29.7021 17.2065 30.4285 17.2065 35.1291V53.9963C17.2065 53.9963 19.5916 51.8627 21.8438 51.8627H27.2976C29.1396 51.8627 33.0248 51.1782 33.0248 45.58V29.7021H22.5768ZM28.8471 46.6715H21.2513V43.0206C21.8932 43.1346 22.5578 44.2451 23.2414 44.4657C23.8605 44.3935 24.4644 42.7201 25.0264 42.6288H25.1062C25.6683 42.7353 26.2456 44.4163 26.8722 44.5038C27.5596 44.2984 28.2357 43.1993 28.8775 43.1004L28.8471 46.6715ZM28.8471 38.5177H21.2513V34.8629C21.8932 34.977 22.5578 36.0913 23.2414 36.3119C23.8605 36.2358 24.4644 34.5663 25.0264 34.4712H25.1062C25.6683 34.5777 26.2456 36.2625 26.8722 36.3461C27.5596 36.1408 28.2357 35.0417 28.8775 34.9428L28.8471 38.5177Z" fill="#E0AF3C"/>
    <path d="M10.8343 29.7021H0.38623V45.5876C0.38623 51.1858 4.27149 51.8627 6.11728 51.8627H11.5711C13.8194 51.8627 16.2045 54.0001 16.2045 54.0001V35.1291C16.2045 30.4285 10.8343 29.7021 10.8343 29.7021ZM11.4609 46.6715H3.86512V43.0206C4.50696 43.1346 5.1716 44.2451 5.85522 44.4657C6.47428 44.3935 7.07815 42.7201 7.64024 42.6288H7.67062C8.23271 42.7353 8.81 44.4163 9.43665 44.5038C10.1241 44.2984 10.8001 43.1993 11.4419 43.1004L11.4609 46.6715ZM11.4609 38.5177H3.86512V34.8629C4.50696 34.977 5.1716 36.0913 5.85522 36.3119C6.47428 36.2358 7.07815 34.5663 7.64024 34.4712H7.67062C8.23271 34.5777 8.81 36.2625 9.43665 36.3461C10.1241 36.1408 10.8001 35.0417 11.4419 34.9428L11.4609 38.5177Z" fill="#E0AF3C"/>
    <path d="M68.5102 24.1876H66.6986C65.8364 24.1876 65.6541 24.1876 65.6541 20.7648V17.5854C65.6541 13.9345 66.991 11.3978 69.0305 11.0669C68.9723 11.2215 68.9402 11.3848 68.9355 11.5499C68.9355 11.9534 69.0956 12.3403 69.3805 12.6256C69.6654 12.9109 70.0518 13.0712 70.4547 13.0712C70.8523 13.0553 71.2278 12.8839 71.5005 12.5937C71.7732 12.3036 71.9214 11.9179 71.9131 11.5195C71.9131 10.7589 71.5105 9.88037 69.5774 9.88037C67.7696 9.88037 66.2922 11.0631 65.4377 13.1244C65.4377 12.9419 65.4377 12.7441 65.4377 12.5996V10.7893C65.451 10.6934 65.442 10.5958 65.4111 10.504C65.3803 10.4123 65.3286 10.329 65.26 10.2607C65.1915 10.1925 65.108 10.1411 65.0163 10.1108C64.9245 10.0804 64.8269 10.0718 64.7312 10.0857H60.5991V10.8464H62.707C63.026 10.8464 63.2273 11.0783 63.2273 11.451V20.7306C63.2273 24.1534 63.0716 24.1534 62.2132 24.1534H61.1004V24.914H68.5102V24.1876Z" fill="#E0AF3C"/>
    <path d="M75.5553 7.89138C75.7361 7.89747 75.9162 7.86579 76.0841 7.79835C76.252 7.73091 76.404 7.6292 76.5305 7.49968C76.657 7.37017 76.7552 7.2157 76.8187 7.04611C76.8823 6.87651 76.9099 6.69552 76.8998 6.51466C76.9102 6.33652 76.8822 6.15823 76.8179 5.99182C76.7536 5.82541 76.6543 5.67476 76.5269 5.55003C76.3995 5.42531 76.2468 5.32941 76.0792 5.26882C75.9116 5.20822 75.7329 5.18435 75.5553 5.19879C75.3763 5.18417 75.1961 5.2077 75.0268 5.26783C74.8574 5.32795 74.7027 5.4233 74.5729 5.54761C74.443 5.67192 74.3409 5.82237 74.2732 5.98905C74.2056 6.15573 74.174 6.33486 74.1805 6.51466C74.1724 6.69761 74.2024 6.88024 74.2687 7.05093C74.3349 7.22163 74.4359 7.37665 74.5652 7.50614C74.6945 7.63563 74.8493 7.73676 75.0198 7.80308C75.1902 7.8694 75.3726 7.89947 75.5553 7.89138Z" fill="#E0AF3C"/>
    <path d="M78.9401 24.1572H77.8008C76.9386 24.1572 76.7601 24.1572 76.7601 20.7344V10.6296C76.7686 10.5541 76.76 10.4777 76.7349 10.406C76.7098 10.3343 76.669 10.2692 76.6153 10.2155C76.5617 10.1618 76.4967 10.1209 76.4251 10.0958C76.3535 10.0707 76.2772 10.0621 76.2018 10.0705H72.6394V10.8312H73.8092C74.132 10.8312 74.3295 11.0631 74.3295 11.4358V20.742C74.3295 24.1648 74.1737 24.1648 73.3154 24.1648H72.2026V24.9254H78.9439L78.9401 24.1572Z" fill="#E0AF3C"/>
    <path d="M84.1233 9.28719V5.34338H83.1511V6.98632C83.1511 7.56819 82.4561 10.276 80.4925 10.276H78.8101V11.4169H81.7231V21.0996C81.7231 23.5107 83.3296 25.127 85.7223 25.127C87.7465 25.127 89.1062 23.6058 89.1062 21.3011V19.6354H88.1529V21.3011C88.1529 22.9251 87.306 23.891 85.8742 23.891C84.8146 23.891 84.1309 22.9555 84.1309 21.5065V11.4207H89.391L89.6303 10.0706H84.036C84.1 9.81457 84.1294 9.55107 84.1233 9.28719Z" fill="#E0AF3C"/>
    <path d="M93.7897 7.89138C93.9707 7.89806 94.151 7.86678 94.3192 7.79955C94.4873 7.73232 94.6396 7.63061 94.7662 7.50098C94.8928 7.37134 94.9909 7.21663 95.0543 7.04677C95.1177 6.87692 95.1449 6.69567 95.1342 6.51466C95.1445 6.33652 95.1166 6.15823 95.0523 5.99182C94.988 5.82542 94.8887 5.67476 94.7613 5.55004C94.6338 5.42531 94.4812 5.32942 94.3136 5.26882C94.146 5.20823 93.9673 5.18435 93.7897 5.1988C93.6108 5.18479 93.4309 5.20874 93.2618 5.26909C93.0928 5.32943 92.9383 5.42481 92.8086 5.549C92.6788 5.67318 92.5767 5.82338 92.5088 5.98978C92.441 6.15617 92.409 6.33503 92.4149 6.51466C92.4068 6.69761 92.4368 6.88024 92.503 7.05094C92.5693 7.22163 92.6703 7.37666 92.7996 7.50615C92.9289 7.63564 93.0837 7.73676 93.2542 7.80308C93.4246 7.86941 93.607 7.89948 93.7897 7.89138Z" fill="#E0AF3C"/>
    <path d="M97.1722 24.1572H96.0328C95.1669 24.1572 94.9884 24.1572 94.9884 20.7344V10.6296C94.9976 10.554 94.9895 10.4773 94.9647 10.4052C94.9399 10.3332 94.899 10.2678 94.8452 10.2139C94.7915 10.1601 94.7261 10.1192 94.6542 10.0943C94.5823 10.0695 94.5056 10.0614 94.4301 10.0706H90.8715V10.8312H92.0412C92.3602 10.8312 92.5615 11.0632 92.5615 11.4359V20.742C92.5615 24.1648 92.4058 24.1648 91.5475 24.1648H90.4309V24.9254H97.1684L97.1722 24.1572Z" fill="#E0AF3C"/>
    <path d="M103.488 24.1572C101.156 24.1572 99.5689 22.636 99.4474 20.2705L99.3448 18.3233H98.3726L98.6954 24.8646L99.0182 24.7733C99.2642 24.6943 99.5197 24.6482 99.7778 24.6364C100.201 24.6572 100.62 24.7197 101.031 24.8228C101.832 25.017 102.653 25.1203 103.477 25.1308C106.895 25.1308 109.193 23.3472 109.193 20.6926C109.193 17.905 106.386 16.7602 104.335 15.9236C102.672 15.2504 100.948 14.5545 100.948 13.3108C100.948 11.6907 101.939 10.8655 103.887 10.8655C106.075 10.8655 107.157 12.6453 107.26 14.4061L107.336 15.6535H108.304L108.042 9.99074L107.719 10.0782C107.472 10.1485 107.217 10.1843 106.96 10.1847C106.704 10.1743 106.45 10.1412 106.2 10.0858C105.435 9.93801 104.658 9.86415 103.88 9.86525C100.742 9.86525 98.7182 11.4245 98.7182 13.8395C98.7182 16.3305 101.312 17.3992 103.401 18.2587C105.27 19.0193 106.819 19.7571 106.819 21.1034C106.834 22.9288 105.49 24.1572 103.488 24.1572Z" fill="#E0AF3C"/>
    <path d="M116.956 24.1572H115.844C114.978 24.1572 114.799 24.1572 114.799 20.7344V16.494C114.799 13.3032 116.485 11.0746 118.901 11.0746C119.888 11.0746 121.024 11.4549 121.024 14.4974V20.742C121.024 24.1648 120.868 24.1648 120.01 24.1648H118.916V24.9254H125.627V24.1648H124.488C123.629 24.1648 123.474 24.1648 123.474 20.742V13.809C123.474 11.375 121.806 9.8652 119.129 9.8652C118.148 9.88013 117.194 10.1858 116.387 10.7436C115.58 11.3014 114.956 12.0862 114.594 12.9989C114.708 11.7021 114.822 10.7399 114.822 9.48869V5.08472H114.062V5.44221C114.062 6.43481 112.49 6.48425 112.163 6.48425H110.5V7.24487H111.901C112.247 7.24487 112.361 7.24487 112.361 10.1276V20.7496C112.361 24.1724 112.209 24.1724 111.347 24.1724H110.238V24.933H116.949L116.956 24.1572Z" fill="#E0AF3C"/>
    <path d="M146.842 24.1572H145.703C144.837 24.1572 144.658 24.1572 144.658 20.7344V16.494C144.658 13.3032 146.345 11.0746 148.76 11.0746C149.748 11.0746 150.883 11.4549 150.883 14.4974V20.7421C150.883 24.1648 150.727 24.1648 149.865 24.1648H148.752V24.9255H155.232V24.1648H154.324C153.466 24.1648 153.31 24.1648 153.31 20.7421V13.809C153.31 11.3751 151.643 9.86523 148.965 9.86523C146.857 9.86523 145.019 11.2762 144.282 13.4553C144.284 13.4705 144.284 13.4858 144.282 13.501C144.282 13.075 144.282 12.7061 144.282 12.5844V11.55C144.282 10.4813 143.375 9.99834 142.528 9.99834C141.616 9.99834 140.629 10.5574 140.629 11.782V13.6227H141.388V11.782C141.388 11.4245 141.559 11.1811 141.818 11.1811C142.076 11.1811 142.22 11.4055 142.22 11.782V20.7383C142.22 24.161 142.064 24.161 141.206 24.161H140.093V24.9216H146.835L146.842 24.1572Z" fill="#E0AF3C"/>
    <path d="M158.034 21.1032C158.034 23.5144 159.641 25.1307 162.034 25.1307C164.058 25.1307 165.418 23.6095 165.418 21.3048V19.6391H164.445V21.3048C164.445 22.9287 163.598 23.8947 162.166 23.8947C161.107 23.8947 160.423 22.9592 160.423 21.5102V11.4206H166.01L166.253 10.0705H160.359C160.423 9.81445 160.452 9.55095 160.446 9.28707V5.34326H159.474V6.9862C159.474 7.56807 158.779 10.2759 156.815 10.2759H155.148V11.4168H158.034V21.1032Z" fill="#E0AF3C"/>
    <path d="M180.583 22.2822L180.743 22.0693L179.96 21.4836L179.801 21.7004C178.798 23.0771 176.994 23.8947 174.977 23.8947C171.738 23.8947 169.478 21.282 169.478 17.5436C169.478 17.1257 169.499 16.708 169.542 16.2924H179.375C180.025 16.2924 180.461 15.7751 180.461 15.0031C180.461 11.8846 178.137 9.86515 174.541 9.86515C172.523 9.85198 170.583 10.6405 169.146 12.0579C167.708 13.4752 166.891 15.4056 166.873 17.4257C166.873 22.035 169.911 25.1307 174.468 25.1307C177.024 25.1307 179.212 24.1191 180.583 22.2822ZM177.784 15.1438L169.721 15.3112C170.325 12.5197 172.072 10.8654 174.438 10.8654C176.561 10.8654 177.928 12.4817 177.928 14.9765C177.913 15.1324 177.845 15.1438 177.784 15.1438Z" fill="#E0AF3C"/>
    <path d="M189.051 24.1876H187.24C186.377 24.1876 186.199 24.1876 186.199 20.7648V17.5854C186.199 13.9345 187.536 11.3978 189.571 11.0669C189.513 11.2215 189.481 11.3848 189.477 11.5499C189.479 11.7462 189.519 11.9402 189.596 12.1207C189.673 12.3013 189.784 12.4649 189.924 12.6023C190.064 12.7397 190.23 12.8481 190.412 12.9214C190.594 12.9946 190.788 13.0313 190.984 13.0293C191.18 13.0273 191.374 12.9867 191.554 12.9097C191.735 12.8328 191.898 12.721 192.035 12.5808C192.172 12.4406 192.281 12.2747 192.354 12.0926C192.427 11.9105 192.464 11.7158 192.462 11.5195C192.462 10.7589 192.055 9.88037 190.126 9.88037C188.314 9.88037 186.837 11.0631 185.982 13.1244C185.982 12.9419 185.982 12.7441 185.982 12.5996V10.7893C185.996 10.6934 185.987 10.5958 185.956 10.504C185.925 10.4123 185.873 10.329 185.805 10.2607C185.736 10.1925 185.653 10.1411 185.561 10.1108C185.469 10.0804 185.372 10.0718 185.276 10.0857H181.14V10.8464H183.248C183.571 10.8464 183.768 11.0783 183.768 11.451V20.7306C183.768 24.1534 183.613 24.1534 182.754 24.1534H181.641V24.914H189.051V24.1876Z" fill="#E0AF3C"/>
    <path d="M199.483 24.1572H198.343C197.477 24.1572 197.299 24.1572 197.299 20.7344V16.494C197.299 13.3032 198.985 11.0746 201.401 11.0746C202.388 11.0746 203.524 11.4549 203.524 14.4974V20.7421C203.524 24.1648 203.368 24.1648 202.506 24.1648H201.397V24.9255H207.872V24.1648H206.965C206.106 24.1648 205.951 24.1648 205.951 20.7421V13.809C205.951 11.3751 204.287 9.86523 201.606 9.86523C199.498 9.86523 197.66 11.2762 196.923 13.4553C196.925 13.4705 196.925 13.4858 196.923 13.501C196.923 13.075 196.923 12.7061 196.923 12.5844V11.55C196.923 10.4813 196.015 9.99834 195.168 9.99834C194.257 9.99834 193.269 10.5574 193.269 11.782V13.6227H194.029V11.782C194.029 11.4245 194.2 11.1811 194.458 11.1811C194.716 11.1811 194.861 11.4055 194.861 11.782V20.7383C194.861 24.161 194.709 24.161 193.847 24.161H192.734V24.9216H199.475L199.483 24.1572Z" fill="#E0AF3C"/>
    <path d="M221.08 23.2597V21.9438H220.321V23.2597C220.321 23.6172 220.157 23.8378 219.891 23.8378C219.717 23.8378 219.489 23.7807 219.489 23.2901V14.1019C219.489 11.3713 217.666 9.86523 214.354 9.86523C213.637 9.87463 212.921 9.93435 212.212 10.044C211.835 10.1046 211.454 10.1414 211.073 10.1543C210.859 10.1531 210.646 10.1276 210.438 10.0782L210.123 9.99834L209.831 15.6535H210.795L210.932 13.9421C211.05 12.0178 212.345 10.8654 214.396 10.8654C216.132 10.8654 217.013 11.8466 217.013 13.7786V17.479H215.239C211.027 17.479 208.71 19.0231 208.71 21.8297C208.71 23.8378 210.461 25.1308 213.173 25.1308C215.239 25.1308 216.834 23.9214 217.563 21.845L217.655 23.3662C217.664 23.802 217.838 24.218 218.142 24.5301C218.446 24.8422 218.857 25.027 219.291 25.0471C219.765 25.0452 220.218 24.8563 220.553 24.5216C220.888 24.187 221.077 23.7335 221.08 23.2597ZM213.443 23.9252C212.11 23.9252 211.164 23.0657 211.164 21.8297C211.164 19.0383 213.443 18.4526 215.342 18.4526H216.997V19.1752C217.009 22.4382 215.167 23.9252 213.458 23.9252H213.443Z" fill="#E0AF3C"/>
    <path d="M224.202 21.1034C224.202 23.5145 225.809 25.1308 228.201 25.1308C230.226 25.1308 231.585 23.6096 231.585 21.3049V19.6392H230.613V21.3049C230.613 22.9289 229.766 23.8948 228.334 23.8948C227.275 23.8948 226.591 22.9593 226.591 21.5103V11.4207H231.851L232.09 10.0706H226.515C226.579 9.81457 226.609 9.55107 226.602 9.28719V5.34338H225.638V6.98632C225.638 7.56819 224.943 10.276 222.979 10.276H221.312V11.4169H224.225L224.202 21.1034Z" fill="#E0AF3C"/>
    <path d="M236.27 7.89135C236.452 7.89799 236.632 7.8667 236.8 7.79951C236.969 7.73231 237.121 7.63068 237.248 7.50111C237.375 7.37154 237.474 7.21688 237.537 7.04701C237.601 6.87715 237.629 6.69583 237.619 6.51463C237.628 6.3363 237.6 6.15794 237.535 5.99154C237.47 5.82513 237.371 5.67454 237.243 5.54989C237.115 5.42523 236.963 5.3294 236.795 5.26884C236.627 5.20827 236.448 5.18438 236.27 5.19877C236.091 5.18476 235.912 5.20871 235.743 5.26906C235.573 5.3294 235.419 5.42478 235.289 5.54897C235.16 5.67315 235.057 5.82335 234.99 5.98975C234.922 6.15614 234.89 6.335 234.896 6.51463C234.887 6.69758 234.918 6.88021 234.984 7.05091C235.05 7.2216 235.151 7.37663 235.28 7.50612C235.41 7.63561 235.564 7.73673 235.735 7.80305C235.905 7.86938 236.088 7.89945 236.27 7.89135Z" fill="#E0AF3C"/>
    <path d="M239.649 24.1572H238.51C237.644 24.1572 237.465 24.1572 237.465 20.7344V10.6296C237.475 10.554 237.466 10.4773 237.442 10.4052C237.417 10.3332 237.376 10.2678 237.322 10.2139C237.268 10.1601 237.203 10.1192 237.131 10.0943C237.059 10.0695 236.983 10.0614 236.907 10.0706H233.348V10.8312H234.518C234.837 10.8312 235.038 11.0632 235.038 11.4359V20.742C235.038 24.1648 234.883 24.1648 234.021 24.1648H232.912V24.9254H239.649V24.1572Z" fill="#E0AF3C"/>
    <path d="M248.855 9.86523C244.404 9.86523 240.781 13.288 240.781 17.4714C240.781 22.0351 244.024 25.1194 248.855 25.1194C253.306 25.1194 256.929 21.6966 256.929 17.4714C256.929 12.9267 253.682 9.86523 248.855 9.86523ZM248.737 10.8654C251.817 10.8654 254.324 14.0182 254.324 17.8935C254.324 21.6396 252.152 24.1572 248.912 24.1572C245.874 24.1572 243.382 20.9931 243.382 17.1063C243.382 13.3146 245.486 10.8654 248.737 10.8654Z" fill="#E0AF3C"/>
    <path d="M271.318 20.723V13.809C271.318 11.3751 269.654 9.86523 266.973 9.86523C264.865 9.86523 263.027 11.2762 262.294 13.4553V13.501C262.294 13.075 262.294 12.7061 262.294 12.5844V11.55C262.294 10.4813 261.386 9.99834 260.543 9.99834C259.628 9.99834 258.644 10.5574 258.644 11.782V13.6227H259.404V11.782C259.404 11.4245 259.575 11.1811 259.833 11.1811C260.091 11.1811 260.235 11.4055 260.235 11.782V20.7383C260.235 24.161 260.084 24.161 259.221 24.161H258.109V24.9216H264.85V24.161H263.711C262.845 24.161 262.666 24.161 262.666 20.7383V16.494C262.666 13.3032 264.352 11.0746 266.768 11.0746C267.755 11.0746 268.891 11.4549 268.891 14.4974V20.7421C268.891 24.1648 268.735 24.1648 267.873 24.1648H266.764V24.9255H273.24V24.1648H272.351C271.473 24.1572 271.318 24.1572 271.318 20.723Z" fill="#E0AF3C"/>
    <path d="M285.697 23.2597C285.697 23.6172 285.534 23.8378 285.264 23.8378C285.093 23.8378 284.884 23.7807 284.884 23.2901V14.1019C284.884 11.3713 283.061 9.86523 279.749 9.86523C279.032 9.8748 278.316 9.93452 277.607 10.044C277.23 10.1046 276.85 10.1414 276.468 10.1543C276.254 10.1531 276.042 10.1276 275.834 10.0782L275.519 9.99834L275.226 15.6535H276.149L276.286 13.9421C276.403 12.0178 277.699 10.8654 279.749 10.8654C281.485 10.8654 282.366 11.8466 282.366 13.7786V17.479H280.593C276.381 17.479 274.064 19.0231 274.064 21.8297C274.064 23.8378 275.815 25.1308 278.527 25.1308C280.593 25.1308 282.188 23.9214 282.917 21.845L283.008 23.3662C283.017 23.802 283.191 24.218 283.495 24.5301C283.799 24.8422 284.21 25.027 284.645 25.0471C284.881 25.0492 285.115 25.0046 285.334 24.9161C285.552 24.8275 285.751 24.6967 285.92 24.531C286.088 24.3654 286.222 24.1682 286.314 23.9508C286.406 23.7333 286.455 23.4997 286.457 23.2635V21.9476H285.697V23.2597ZM278.827 23.9252C277.493 23.9252 276.548 23.0657 276.548 21.8297C276.548 19.0383 278.827 18.4526 280.725 18.4526H282.381V19.1752C282.378 22.4382 280.536 23.9252 278.827 23.9252Z" fill="#E0AF3C"/>
    <path d="M292.861 24.1572C291.995 24.1572 291.817 24.1572 291.817 20.7344V5.08472H291.106V5.44221C291.106 6.45763 289.386 6.48425 289.208 6.48425H287.544V7.24487H288.949C289.268 7.24487 289.409 7.38558 289.409 7.70504V20.7763C289.409 24.199 289.23 24.199 288.368 24.199H287.255V24.9596H294V24.199L292.861 24.1572Z" fill="#E0AF3C"/>
    <path d="M71.7 47.9379C71.2667 48.8395 70.5805 49.5952 69.7252 50.1125C68.87 50.6299 67.8828 50.8865 66.8842 50.8511C64.1079 50.8511 61.1228 48.71 61.1228 44.0055C61.1228 40.2937 63.1926 37.7989 66.2727 37.7989C68.4452 37.7989 70.8302 39.1794 70.8986 41.4156L70.967 43.6328H71.9392L71.7455 37.0801L71.4303 37.1524C71.1338 37.2257 70.8313 37.2715 70.5264 37.2893C69.9886 37.2712 69.4535 37.205 68.9275 37.0915C68.1208 36.9278 67.3008 36.8387 66.4778 36.8253C62.0571 36.8253 58.4604 40.2177 58.4604 44.3859C58.4604 48.9952 61.6925 52.0909 66.5044 52.0909C69.387 52.0909 71.6696 50.6762 72.6115 48.3068L72.714 48.0482L71.8177 47.7288L71.7 47.9379Z" fill="#E0AF3C"/>
    <path d="M86.7488 47.6793V40.7614C86.7488 38.3313 85.0815 36.8214 82.4002 36.8214C81.4195 36.8341 80.4649 37.1389 79.6579 37.697C78.851 38.2552 78.2283 39.0413 77.8693 39.9552C77.9794 38.6583 78.0972 37.0268 78.0972 35.7718V31.364H77.3376V31.7063C77.3376 32.7027 75.7652 32.7521 75.4386 32.7521H73.7713V33.4899H75.1766C75.5184 33.4899 75.6361 32.1513 75.6361 35.034V47.6793C75.6361 51.102 75.4804 51.102 74.6221 51.102H73.5093V51.8626H80.2202V51.102H79.1074C78.2453 51.102 78.0668 51.102 78.0668 47.6793V43.4464C78.0668 40.2556 79.753 38.027 82.1685 38.027C83.156 38.027 84.2877 38.4073 84.2877 41.4498V47.6793C84.2877 51.102 84.132 51.102 83.2737 51.102H82.1913V51.8626H88.9136V51.102H87.7742C86.9007 51.102 86.7488 51.102 86.7488 47.6793Z" fill="#E0AF3C"/>
    <path d="M97.8981 36.8215C93.4431 36.8215 89.8237 40.2443 89.8237 44.4277C89.8237 48.9914 93.0671 52.0757 97.8981 52.0757C102.349 52.0757 105.972 48.6529 105.972 44.4277C105.972 39.883 102.729 36.8215 97.8981 36.8215ZM97.7804 37.8217C100.86 37.8217 103.371 40.9745 103.371 44.846C103.371 48.5959 101.195 51.1135 97.9551 51.1135C94.9167 51.1135 92.4253 47.9494 92.4253 44.0588C92.4253 40.2709 94.5293 37.8217 97.7804 37.8217Z" fill="#E0AF3C"/>
    <path d="M115.783 36.8215C111.332 36.8215 107.708 40.2443 107.708 44.4277C107.708 48.9914 110.956 52.0757 115.783 52.0757C120.238 52.0757 123.861 48.6529 123.861 44.4277C123.853 39.883 120.614 36.8215 115.783 36.8215ZM115.669 37.8217C118.749 37.8217 121.256 40.9745 121.256 44.846C121.256 48.5959 119.079 51.1135 115.844 51.1135C112.805 51.1135 110.314 47.9494 110.314 44.0588C110.314 40.2709 112.414 37.8217 115.669 37.8217Z" fill="#E0AF3C"/>
    <path d="M129.334 47.7059V31.3527H128.624V31.7063C128.624 32.7218 126.903 32.7522 126.725 32.7522H125.057V33.49H126.463C126.782 33.49 126.922 33.6345 126.922 33.954V47.6945C126.922 51.1173 126.744 51.1173 125.878 51.1173H124.765V51.8779H131.537V51.1173H130.397C129.516 51.1021 129.334 51.1021 129.334 47.7059Z" fill="#E0AF3C"/>
    <path d="M147.451 36.8215C143 36.8215 139.376 40.2443 139.376 44.4277C139.376 48.9914 142.62 52.0757 147.451 52.0757C151.902 52.0757 155.525 48.6529 155.525 44.4277C155.525 39.883 152.282 36.8215 147.451 36.8215ZM147.333 37.8217C150.417 37.8217 152.924 40.9745 152.924 44.846C152.924 48.5959 150.747 51.1135 147.508 51.1135C144.469 51.1135 141.978 47.9494 141.978 44.0588C141.978 40.2709 144.082 37.8217 147.333 37.8217Z" fill="#E0AF3C"/>
    <path d="M165.548 32.7788C164.769 32.4642 163.935 32.3102 163.095 32.3262C160.235 32.3262 158.309 33.7105 158.309 35.7756C158.363 36.7385 158.511 37.6938 158.75 38.6279H156.71V39.8069H158.833V50.098C158.833 50.9613 158.708 51.1134 157.998 51.1134H156.71V51.8741H163.129V51.1134H161.23C161.247 50.9798 161.253 50.845 161.249 50.7103V39.8069H165.066V38.6279H161.124C160.616 37.7609 160.334 36.7802 160.303 35.7756C160.303 34.3342 161.443 33.3302 163.095 33.3302C164.234 33.3302 165.753 33.7105 165.753 36.9127V37.4109H166.726V32.9955H166.46C166.145 32.9803 165.836 32.9068 165.548 32.7788Z" fill="#E0AF3C"/>
    <path d="M132.027 5.84543H133.193C134.199 5.84543 134.385 5.96332 134.385 9.64851V20.0423C134.385 23.8074 134.199 23.9291 133.193 23.9291H132.027V24.8609H139.402V23.9481H138.236C137.234 23.9481 137.044 23.8264 137.044 20.0614V9.73218C137.044 6.03178 137.234 5.9291 138.236 5.9291H139.402V5.01636H132.027V5.84543Z" fill="#E0AF3C"/>
    <path d="M55.3685 13.132C57.0396 12.4475 58.1904 10.9338 58.1904 9.38979C58.1904 6.74664 55.4825 4.9668 51.4567 4.9668H43.7925V5.95179H45.7598C46.6295 5.95179 46.8118 5.9518 46.8118 9.67882V20.297C46.8118 24.0279 46.6295 24.0279 45.7598 24.0279H43.7925V25.0091H52.4517C56.9522 25.0091 60.2146 22.5142 60.2146 19.0724C60.2146 16.802 58.5284 13.9953 55.3685 13.132ZM51.8099 13.7443C54.9963 13.7443 57.3092 15.9767 57.3092 19.0686C57.3092 21.978 55.1634 23.9328 51.9694 23.9328H50.1046C49.6792 23.9328 49.5919 23.3547 49.5919 22.8717V13.7443H51.8099ZM49.3906 6.13815L49.345 6.04307H51.0997C53.6595 6.04307 55.3115 7.37035 55.3115 9.42401C55.3115 11.413 53.7278 12.8012 51.4567 12.8012H49.5919V7.22963C49.6055 6.85543 49.5367 6.48282 49.3906 6.13815Z" fill="#E0AF3C"/>
    <path d="M51.4113 40.153C49.3756 38.9322 47.4501 37.7761 47.4501 35.7452C47.4501 33.8209 48.5211 32.8055 50.5454 32.8055C53.0064 32.8055 54.1989 34.7641 54.2863 36.7036L54.3736 38.202L55.5814 38.1222L55.251 31.752L54.8408 31.8243C54.5536 31.8734 54.2623 31.8938 53.9711 31.8851C53.4964 31.8753 53.023 31.8321 52.5545 31.7558C51.8894 31.6547 51.218 31.6001 50.5454 31.5923C47.1272 31.5923 44.8485 33.4938 44.8485 36.3271C44.8485 39.7499 47.6362 41.4156 49.8731 42.7543C52.0227 44.0436 53.8002 45.2834 53.8002 47.3599C53.8002 49.5162 52.357 50.912 50.1238 50.912C47.5792 50.912 45.9461 49.2386 45.7372 46.4319L45.6157 44.5304L44.4155 44.6102L44.7421 51.897L45.1827 51.7715C45.4569 51.6998 45.7387 51.6615 46.022 51.6574C46.5727 51.682 47.121 51.7455 47.6627 51.8475C48.4967 51.999 49.3411 52.0867 50.1883 52.1099C53.9863 52.1099 56.565 50.0258 56.565 46.9263C56.565 43.2259 53.5913 41.4499 51.4113 40.153Z" fill="#E0AF3C"/>
    <path d="M188.573 31.4211H174.68L174.3 36.9204L175.402 36.9813L175.523 35.6159C175.706 33.1401 177.206 32.6457 179.568 32.6457H180.225V47.0975C180.225 50.9272 180.088 50.9272 179.002 50.9272H176.644V51.8247H186.45V50.9272H184.171C183.089 50.9272 182.948 50.9272 182.948 47.0975V32.6457H183.609C185.888 32.6457 187.468 33.1515 187.654 35.6198L187.775 36.9813L188.877 36.9204L188.573 31.4211Z" fill="#E0AF3C"/>
    <path d="M199.163 36.8215C198.193 36.7864 197.23 36.9899 196.357 37.4143C195.484 37.8386 194.729 38.4708 194.157 39.2554V31.6302H193.42V31.9877C193.42 33.0032 191.7 33.0298 191.521 33.0298H189.884V33.7714H191.29C191.605 33.7714 191.749 33.9121 191.749 34.2316V48.7479L191.62 52.1175L192.478 51.8817L192.516 50.9613C192.615 48.4399 193.116 47.8732 193.276 47.8732C193.371 47.8732 193.568 48.0406 193.739 48.4969C194.541 50.7103 196.626 52.087 199.174 52.087C202.972 52.087 206.086 48.6643 206.086 44.4809C206.075 39.8944 203.295 36.8215 199.163 36.8215ZM194.157 41.214C195.129 39.2288 196.781 38.1411 198.813 38.1411C201.601 38.1411 203.469 40.8565 203.469 44.903C203.469 48.4779 201.57 50.8777 198.699 50.8777C196.512 50.8777 194.142 49.1701 194.142 45.4278L194.157 41.214Z" fill="#E0AF3C"/>
    <path d="M207.991 33.471C207.983 33.654 208.013 33.8366 208.079 34.0073C208.145 34.178 208.246 34.333 208.376 34.4625C208.505 34.592 208.66 34.6931 208.83 34.7594C209.001 34.8258 209.183 34.8558 209.366 34.8477C209.547 34.8544 209.727 34.8231 209.895 34.7559C210.064 34.6887 210.216 34.587 210.342 34.4573C210.469 34.3277 210.567 34.173 210.63 34.0031C210.694 33.8333 210.721 33.652 210.71 33.471C210.721 33.2927 210.693 33.1143 210.628 32.9477C210.564 32.7811 210.465 32.6303 210.338 32.5052C210.21 32.3802 210.058 32.284 209.89 32.2229C209.722 32.1619 209.544 32.1375 209.366 32.1514C209.187 32.1373 209.006 32.1614 208.837 32.2219C208.668 32.2825 208.513 32.3782 208.383 32.5028C208.253 32.6274 208.151 32.7781 208.084 32.9449C208.016 33.1118 207.985 33.2911 207.991 33.471Z" fill="#E0AF3C"/>
    <path d="M210.567 47.7058V37.5858C210.576 37.5101 210.568 37.4332 210.543 37.3611C210.518 37.2889 210.477 37.2233 210.424 37.1691C210.37 37.115 210.305 37.0737 210.233 37.0484C210.161 37.0231 210.084 37.0144 210.009 37.023H206.45V37.7836H207.62C207.939 37.7836 208.136 38.0156 208.136 38.3883V47.6944C208.136 51.1172 207.984 51.1172 207.122 51.1172H206.013V51.8778H212.751V51.1172H211.611C210.745 51.102 210.567 51.102 210.567 47.7058Z" fill="#E0AF3C"/>
    <path d="M217.879 47.7059V31.3527H217.168V31.7063C217.168 32.7218 215.448 32.7522 215.25 32.7522H213.587V33.49H215.003C215.323 33.49 215.467 33.6345 215.467 33.954V47.6945C215.467 51.1173 215.285 51.1173 214.422 51.1173H213.294V51.8779H220.066V51.1173H218.927C218.061 51.1021 217.879 51.1021 217.879 47.7059Z" fill="#E0AF3C"/>
    <path d="M222.618 33.471C222.61 33.654 222.64 33.8366 222.706 34.0073C222.772 34.178 222.873 34.333 223.003 34.4625C223.132 34.592 223.287 34.6931 223.457 34.7594C223.628 34.8258 223.81 34.8558 223.993 34.8477C224.174 34.8538 224.354 34.8221 224.522 34.7547C224.69 34.6873 224.842 34.5856 224.968 34.456C225.094 34.3265 225.193 34.1721 225.256 34.0025C225.32 33.8329 225.347 33.6519 225.337 33.471C225.348 33.2927 225.32 33.1143 225.255 32.9477C225.191 32.7811 225.092 32.6303 224.965 32.5052C224.837 32.3802 224.685 32.284 224.517 32.2229C224.349 32.1619 224.171 32.1375 223.993 32.1514C223.814 32.1373 223.633 32.1614 223.464 32.2219C223.295 32.2825 223.14 32.3782 223.01 32.5028C222.88 32.6274 222.778 32.7781 222.711 32.9449C222.643 33.1118 222.612 33.2911 222.618 33.471Z" fill="#E0AF3C"/>
    <path d="M225.194 47.7059V37.5859C225.203 37.5099 225.194 37.433 225.169 37.3609C225.143 37.2887 225.102 37.2232 225.048 37.1692C224.994 37.1151 224.929 37.0739 224.857 37.0486C224.785 37.0233 224.708 37.0146 224.632 37.023H221.081V37.7836H222.251C222.574 37.7836 222.771 38.0156 222.771 38.3883V47.6945C222.771 51.1173 222.615 51.1173 221.757 51.1173H220.644V51.8779H227.385V51.1173H226.246C225.373 51.102 225.194 51.102 225.194 47.7059Z" fill="#E0AF3C"/>
    <path d="M234.552 42.8798C232.884 42.2067 231.164 41.5107 231.164 40.2671C231.164 38.647 232.151 37.8217 234.1 37.8217C236.287 37.8217 237.37 39.6016 237.476 41.3624L237.548 42.606H238.517L238.255 36.947L237.936 37.0345C237.688 37.1044 237.433 37.1403 237.176 37.141C236.92 37.1301 236.666 37.097 236.416 37.0421C235.652 36.8921 234.875 36.8182 234.096 36.8215C230.963 36.8215 228.935 38.3808 228.935 40.7919C228.935 43.2868 231.532 44.3554 233.617 45.2111C235.486 45.9717 237.035 46.7133 237.035 48.0558C237.035 49.8851 235.691 51.0983 233.69 51.0983C231.354 51.0983 229.766 49.5771 229.645 47.2115L229.542 45.2644H228.574L228.893 51.8057L229.219 51.7106C229.466 51.6341 229.721 51.5894 229.979 51.5775C230.401 51.5984 230.819 51.6608 231.228 51.7638C232.031 51.9564 232.853 52.0597 233.678 52.0719C237.096 52.0719 239.375 50.2882 239.375 47.6337C239.409 44.8612 236.603 43.7165 234.552 42.8798Z" fill="#E0AF3C"/>
    <path d="M245.261 33.471C245.271 33.2927 245.243 33.1143 245.179 32.9477C245.115 32.7811 245.016 32.6303 244.888 32.5052C244.761 32.3802 244.608 32.284 244.441 32.2229C244.273 32.1619 244.094 32.1375 243.917 32.1514C243.737 32.1373 243.557 32.1614 243.388 32.2219C243.218 32.2825 243.064 32.3782 242.934 32.5028C242.804 32.6274 242.702 32.7781 242.635 32.9449C242.567 33.1118 242.535 33.2911 242.542 33.471C242.534 33.654 242.564 33.8366 242.63 34.0073C242.696 34.178 242.797 34.333 242.927 34.4625C243.056 34.592 243.211 34.6931 243.381 34.7594C243.552 34.8258 243.734 34.8558 243.917 34.8477C244.097 34.8538 244.278 34.8221 244.445 34.7547C244.613 34.6873 244.765 34.5856 244.892 34.456C245.018 34.3265 245.116 34.1721 245.18 34.0025C245.244 33.8329 245.271 33.6519 245.261 33.471Z" fill="#E0AF3C"/>
    <path d="M245.116 47.7058V37.5858C245.125 37.5101 245.117 37.4332 245.092 37.3611C245.067 37.2889 245.026 37.2233 244.972 37.1691C244.919 37.115 244.854 37.0737 244.782 37.0484C244.71 37.0231 244.633 37.0144 244.557 37.023H240.999V37.7836H242.168C242.487 37.7836 242.685 38.0156 242.685 38.3883V47.6944C242.685 51.1172 242.533 51.1172 241.671 51.1172H240.558V51.8778H247.284V51.1172H246.145C245.294 51.102 245.116 51.102 245.116 47.7058Z" fill="#E0AF3C"/>
</svg>
